<svg xmlns="http://www.w3.org/2000/svg" id="Layer_2" width="16" height="16" viewBox="0 0 16 16">
    <defs>
        <style>
            .cls-2{fill:#fff}
        </style>
    </defs>
    <g id="plus-circle">
        <path id="Path_8805" d="M8.667 2a6.667 6.667 0 1 0 6.667 6.667A6.667 6.667 0 0 0 8.667 2zm0 12A5.333 5.333 0 1 1 14 8.667 5.333 5.333 0 0 1 8.667 14z" class="cls-2" transform="translate(-.667 -.667)"/>
        <path id="Path_8806" d="M12.667 10h-1.334V8.667a.667.667 0 0 0-1.333 0V10H8.667a.667.667 0 1 0 0 1.333H10v1.333a.667.667 0 0 0 1.333 0v-1.333h1.333a.667.667 0 0 0 0-1.333z" class="cls-2" transform="translate(-2.667 -2.667)"/>
    </g>
</svg>
