<svg xmlns="http://www.w3.org/2000/svg" width="22" height="22" viewBox="0 0 22 22">
    <path fill="#2e3d74" d="M17.7 22H3.582c-.615 0-.855-.238-.855-.848V9.931l-.083.075c-.046.041-.082.073-.116.107l-.505.5c-.271.271-.539.539-.809.8a.784.784 0 0 1-.544.243.652.652 0 0 1-.477-.21.686.686 0 0 1 .051-1q5.107-5.1 10.219-10.2a.69.69 0 0 1 1.072 0q5.11 5.1 10.217 10.2A.781.781 0 0 1 22 11a.687.687 0 0 1-.668.666.809.809 0 0 1-.561-.255l-1.238-1.237-.033-.033-.936-.941v11.931c0 .634-.233.869-.864.869zm-7.14-7.581c.66 0 1.531 0 2.412.008a1.086 1.086 0 0 1 .539.171.674.674 0 0 1 .241.628v5.385h3.428v-.093c0-.051.006-.1.006-.147v-8.512-.847c0-.937 0-1.905.014-2.857a.639.639 0 0 0-.213-.522C15.4 6.054 13.8 4.451 12.245 2.9l-1.054-1.05c-.032-.032-.065-.062-.1-.094L11 1.669l-.043.039c-.032.028-.059.052-.085.079l-.511.509C8.35 4.3 6.271 6.376 4.23 8.422a.54.54 0 0 0-.13.348V20.605h3.434v-5.36c0-.578.25-.825.833-.825h2.193zM8.931 15.8v4.806h3.429V15.8z"/>
</svg>
