<svg xmlns="http://www.w3.org/2000/svg" width="16.2" height="16.081" viewBox="0 0 16.2 16.081">
    <defs>
        <style>
            .cls-1{fill:#2e3d74;stroke:#2e3d74;stroke-width:.2px}
        </style>
    </defs>
    <g id="XMLID_1_" transform="translate(.1 -.079)">
        <path id="Path_9113" d="M13.833 9.09l5.873 1.167a.985.985 0 0 1 .793.973v6.8a1 1 0 0 1-1 1h-6a.33.33 0 0 0 .333-.333v-.333H19.5a.334.334 0 0 0 .333-.333v-6.8a.335.335 0 0 0-.26-.327l-5.74-1.134z" class="cls-1" transform="translate(-4.5 -2.97)"/>
        <path id="Path_9114" d="M18.667 14a.333.333 0 1 1 0 .667h-1.334a.333.333 0 0 1 0-.667z" class="cls-1" transform="translate(-5.667 -4.606)"/>
        <path id="Path_9115" d="M18.667 17a.333.333 0 1 1 0 .667h-1.334a.333.333 0 0 1 0-.667z" class="cls-1" transform="translate(-5.667 -5.606)"/>
        <path id="Path_9116" d="M18.667 20a.333.333 0 1 1 0 .667h-1.334a.333.333 0 0 1 0-.667z" class="cls-1" transform="translate(-5.667 -6.606)"/>
        <path id="Path_9117" d="M13.667 18.667a.333.333 0 1 1-.667 0V9.333a.354.354 0 0 1 .12-.26.35.35 0 0 1 .28-.067l.267.053v9.607z" class="cls-1" transform="translate(-4.333 -2.94)"/>
        <path id="Path_9118" d="M11.833 23v.333a.33.33 0 0 0 .333.333H9.5a.33.33 0 0 0 .333-.333V23z" class="cls-1" transform="translate(-3.167 -7.606)"/>
        <path id="Path_9119" d="M9.667 5a.333.333 0 0 1 0 .667H8.333a.333.333 0 1 1 0-.667z" class="cls-1" transform="translate(-2.667 -1.606)"/>
        <path id="Path_9120" d="M10 8.333a.33.33 0 0 1-.333.333H8.333a.333.333 0 1 1 0-.667h1.334a.33.33 0 0 1 .333.334z" class="cls-1" transform="translate(-2.667 -2.606)"/>
        <path id="Path_9121" d="M9.667 11a.333.333 0 1 1 0 .667H8.333a.333.333 0 1 1 0-.667z" class="cls-1" transform="translate(-2.667 -3.606)"/>
        <path id="Path_9122" d="M9.667 14a.333.333 0 1 1 0 .667H8.333a.333.333 0 1 1 0-.667z" class="cls-1" transform="translate(-2.667 -4.606)"/>
        <path id="Path_9123" d="M5 14.333a.33.33 0 0 1-.333.333H3.333a.333.333 0 1 1 0-.667h1.334a.33.33 0 0 1 .333.334z" class="cls-1" transform="translate(-1 -4.606)"/>
        <path id="Path_9124" d="M4.667 5a.333.333 0 1 1 0 .667H3.333a.333.333 0 1 1 0-.667z" class="cls-1" transform="translate(-1 -1.606)"/>
        <path id="Path_9125" d="M4.667 8a.333.333 0 1 1 0 .667H3.333a.333.333 0 1 1 0-.667z" class="cls-1" transform="translate(-1 -2.606)"/>
        <path id="Path_9126" d="M4.667 11a.333.333 0 1 1 0 .667H3.333a.333.333 0 1 1 0-.667z" class="cls-1" transform="translate(-1 -3.606)"/>
        <path id="Path_9127" d="M7.333 18A.334.334 0 0 0 7 17.667H5a.33.33 0 0 0-.333.333v3H4v-3a1 1 0 0 1 1-1h2a1 1 0 0 1 1 1v3h-.667z" class="cls-1" transform="translate(-1.333 -5.606)"/>
        <path id="Path_9128" d="M4.667 23H8v.333a.33.33 0 0 1-.333.333H4.333A.33.33 0 0 1 4 23.333V23z" class="cls-1" transform="translate(-1.333 -7.606)"/>
        <path id="Path_9129" d="M1.167.194l7.326 1.113a1 1 0 0 1 .84.987V6.12l-.267-.053a.35.35 0 0 0-.28.067.354.354 0 0 0-.12.26v-4.1a.337.337 0 0 0-.28-.333L1.06.854A.185.185 0 0 0 1 .847a.314.314 0 0 0-.213.08.319.319 0 0 0-.12.253v13.88a.334.334 0 0 0 .333.334h1.667v.333A.33.33 0 0 0 3 16.06H1a1 1 0 0 1-1-1V1.18A.982.982 0 0 1 .353.42a1 1 0 0 1 .814-.226z" class="cls-1"/>
    </g>
</svg>
