<svg xmlns="http://www.w3.org/2000/svg" width="40" height="27.586" viewBox="0 0 40 27.586">
  <g id="Group_4195" data-name="Group 4195" transform="translate(-299.5 -162)">
    <g id="Group_4194" data-name="Group 4194">
      <path id="Path_9084" data-name="Path 9084" d="M40,104.672a2.365,2.365,0,0,1-2.364,2.365H2.364A2.364,2.364,0,0,1,0,104.672V81.816a2.365,2.365,0,0,1,2.364-2.365H37.636A2.364,2.364,0,0,1,40,81.816v22.857Z" transform="translate(299.5 82.549)" fill="#306fc5"/>
      <path id="Path_9085" data-name="Path 9085" d="M1.681,104.672V81.816a2.365,2.365,0,0,1,2.365-2.365H2.364A2.364,2.364,0,0,0,0,81.816v22.857a2.365,2.365,0,0,0,2.364,2.365H4.046A2.365,2.365,0,0,1,1.681,104.672Z" transform="translate(299.5 82.549)" fill="#202121" opacity="0.15"/>
    </g>
    <g id="Group_4193" data-name="Group 4193">
      <path id="Path_9086" data-name="Path 9086" d="M74.59,202.8h1.2l-.6-1.521Z" transform="translate(230.737 -29.76)" fill="#fff"/>
      <path id="Path_9088" data-name="Path 9088" d="M349.2,201.278l-.652,1.521h1.25Z" transform="translate(-21.822 -29.76)" fill="#fff"/>
      <path id="Path_9092" data-name="Path 9092" d="M66.16,183.2v.652l-.326-.652H63.281v.652l-.326-.652H59.478a3.307,3.307,0,0,0-1.521.326V183.2H55.513v.326a1.567,1.567,0,0,0-1.032-.326H45.734l-.6,1.358-.6-1.358h-2.77v.652L41.5,183.2h-2.39l-1.087,2.553-1.249,2.77-.023.054h2.828l.02-.054.326-.815h.706l.326.869H44.1v-.652l.272.652h1.575l.271-.652v.652h7.551v-1.413h.109c.109,0,.109,0,.109.163v1.2H57.9V188.2a3.25,3.25,0,0,0,1.466.326H61l.326-.869h.76l.326.869h3.151v-.815l.489.815H68.6V183.2H66.16Zm-18.415,4.563h-.869v-2.988l-.054.125h0l-1.264,2.865h-.8l-1.3-2.988v2.988H41.606l-.38-.815H39.378l-.38.815h-.955l1.607-3.8h1.358l1.521,3.64v-3.64h1.439l.026.054h0l.685,1.492.492,1.118.017-.056,1.086-2.607h1.467v3.8Zm3.748-2.988H49.374v.706h2.064v.76H49.374V187h2.119v.815H48.451v-3.857h3.042v.815Zm3.875,1.4,0,0a.623.623,0,0,1,.053.064,1.045,1.045,0,0,1,.192.637v.015s0,.006,0,.009,0,0,0,0c0,.03,0,.06,0,.094v.761h-.815v-.435a1.293,1.293,0,0,0-.163-.761.494.494,0,0,0-.16-.109,1.084,1.084,0,0,0-.492-.054h-.978v1.358H52.09v-3.8h2.064a2.083,2.083,0,0,1,1.086.163.918.918,0,0,1,.433.845,1.079,1.079,0,0,1-.65,1A.727.727,0,0,1,55.367,186.174Zm1.829,1.587h-.924v-3.8H57.2Zm10.593,0h-1.2l-1.738-2.879v2.39l-.006-.006v.5h-.918v0h-.924l-.326-.815h-1.9l-.326.869H59.424a1.633,1.633,0,0,1-1.792-1.9,2.227,2.227,0,0,1,.489-1.521,1.711,1.711,0,0,1,1.358-.435h.869v.815h-.869a1,1,0,0,0-.706.217,1.277,1.277,0,0,0-.271.869,1.183,1.183,0,0,0,.271.924.866.866,0,0,0,.652.218h.38l1.249-2.988h1.358l1.521,3.64v-3.64h1.358l1.575,2.662v-2.662h.924v3.748h0Z" transform="translate(265.623 -13.093)" fill="#fff"/>
      <path id="Path_9093" data-name="Path 9093" d="M246.524,204.133a.291.291,0,0,0,.042-.058.587.587,0,0,0,.075-.41.3.3,0,0,0-.008-.05s0-.008,0-.013h0a.3.3,0,0,0-.165-.185,1.064,1.064,0,0,0-.435-.054h-1.087v.869h1.087a1.058,1.058,0,0,0,.435-.054.2.2,0,0,0,.045-.032h0Z" transform="translate(73.691 -31.684)" fill="#fff"/>
    </g>
    <g id="Group_4192" data-name="Group 4192">
      <path id="Path_9087" data-name="Path 9087" d="M155.946,286.107v.706h2.01v.761h-2.01v.815h2.227l1.032-1.141-.978-1.141Z" transform="translate(155.737 -107.962)" fill="#fff"/>
      <path id="Path_9089" data-name="Path 9089" d="M213.681,284.337v-3.1l-1.413,1.521Z" transform="translate(103.815 -103.477)" fill="#fff"/>
      <path id="Path_9090" data-name="Path 9090" d="M243.906,286.6a.548.548,0,0,0-.6-.489h-1.141v.978h1.2C243.688,287.085,243.906,286.922,243.906,286.6Z" transform="translate(76.252 -107.962)" fill="#fff"/>
      <path id="Path_9091" data-name="Path 9091" d="M295.142,287.62a.423.423,0,0,0,.163-.38.3.3,0,0,0-.163-.38,1.057,1.057,0,0,0-.434-.054h-1.087v.869h1.087A1.057,1.057,0,0,0,295.142,287.62Z" transform="translate(28.818 -108.605)" fill="#fff"/>
      <path id="Path_9094" data-name="Path 9094" d="M160.368,268.192a2.081,2.081,0,0,0-.271-1.032v-2.444h0v-.163h-2.616a1.546,1.546,0,0,0-.75.326v-.326h-2.5a1.726,1.726,0,0,0-1.087.326v-.326h-4.454v.326a2.1,2.1,0,0,0-1.2-.326H144.56v.326a2.064,2.064,0,0,0-1.25-.326h-3.259l-.761.815-.706-.815H133.7v5.487h4.78l.785-.786.681.786h3.042V268.79h.272a3.3,3.3,0,0,0,1.249-.163v1.467h2.445v-1.413h.108c.163,0,.163,0,.163.163v1.25h7.388a2.129,2.129,0,0,0,1.249-.326v.326h2.336a2.439,2.439,0,0,0,1.3-.272,1.824,1.824,0,0,0,.862-1.465c0-.019,0-.038.007-.056l0,0C160.366,268.262,160.368,268.227,160.368,268.192Zm-17.112-.326h-1.087v1.412h-1.786l-1.039-1.2,0,0-.051-.058-1.2,1.25h-3.477v-3.8h3.531l.965,1.057.2.221.027-.029,1.141-1.249h2.879a1.41,1.41,0,0,1,1.422.706,1.536,1.536,0,0,1,.045.38C144.831,267.649,144.071,267.866,143.256,267.866Zm5.432-.054a1.233,1.233,0,0,1,.163.706v.76h-.923v-.489a1.212,1.212,0,0,0-.163-.761c-.108-.163-.326-.163-.652-.163h-.978v1.412h-.923v-3.857h2.064a2.191,2.191,0,0,1,1.087.163.962.962,0,0,1,.489.869,1.082,1.082,0,0,1-.652,1.032A.926.926,0,0,1,148.688,267.812Zm3.748-1.576h-2.119v.706h2.064v.761h-2.064v.761h2.119v.815h-3.042v-3.857h3.042Zm2.281,3.042H152.98v-.815h1.738a.459.459,0,0,0,.38-.109.394.394,0,0,0,0-.543.461.461,0,0,0-.326-.109c-.869-.054-1.9,0-1.9-1.195,0-.543.326-1.141,1.3-1.141h1.793v.923h-1.684a.806.806,0,0,0-.38.054c-.108.054-.108.163-.108.272,0,.163.108.217.217.271a.688.688,0,0,0,.326.054h.489a1.383,1.383,0,0,1,1.032.326,1.125,1.125,0,0,1,.272.815C156.13,268.9,155.642,269.278,154.718,269.278Zm4.672-.381a1.583,1.583,0,0,1-1.141.381h-1.738v-.815h1.738a.458.458,0,0,0,.38-.109.394.394,0,0,0,0-.543.459.459,0,0,0-.326-.109c-.869-.054-1.9,0-1.9-1.195a1.11,1.11,0,0,1,1.024-1.121,2.026,2.026,0,0,1,.28-.02H159.5v.923h-1.684a.8.8,0,0,0-.38.054.414.414,0,0,0-.109.272c0,.163.054.217.218.271a.687.687,0,0,0,.326.054h.489a1.7,1.7,0,0,1,.581.087,1.17,1.17,0,0,1,.76.859,1.22,1.22,0,0,1,.017.195A1.1,1.1,0,0,1,159.39,268.9Z" transform="translate(176.25 -88.091)" fill="#fff"/>
    </g>
  </g>
</svg>
