<svg xmlns="http://www.w3.org/2000/svg" width="24" height="24" viewBox="0 0 24 24">
  <g id="Group_4179" data-name="Group 4179" transform="translate(-128 -616)">
    <rect id="Rectangle_4338" data-name="Rectangle 4338" width="24" height="24" transform="translate(128 616)" fill="none"/>
    <g id="calendar-3" transform="translate(129 617)">
      <path id="Path_9096" data-name="Path 9096" d="M19.479,62.835H2.521A2.523,2.523,0,0,1,0,60.314V45.189a2.523,2.523,0,0,1,2.521-2.521H19.479A2.523,2.523,0,0,1,22,45.189V60.314A2.523,2.523,0,0,1,19.479,62.835ZM2.521,44.043a1.147,1.147,0,0,0-1.146,1.146V60.314A1.147,1.147,0,0,0,2.521,61.46H19.479a1.147,1.147,0,0,0,1.146-1.146V45.189a1.147,1.147,0,0,0-1.146-1.146Zm0,0" transform="translate(0 -40.835)" fill="#ccc"/>
      <path id="Path_9097" data-name="Path 9097" d="M21.312,172.043H.687a.687.687,0,1,1,0-1.375H21.312a.687.687,0,1,1,0,1.375Zm0,0" transform="translate(0 -163.335)" fill="#ccc"/>
      <path id="Path_9098" data-name="Path 9098" d="M107.355,5.5a.688.688,0,0,1-.687-.687V.687a.687.687,0,0,1,1.375,0V4.812A.688.688,0,0,1,107.355,5.5Zm0,0" transform="translate(-102.085)" fill="#ccc"/>
      <path id="Path_9099" data-name="Path 9099" d="M374.02,5.5a.688.688,0,0,1-.687-.687V.687a.687.687,0,0,1,1.375,0V4.812A.688.688,0,0,1,374.02,5.5Zm0,0" transform="translate(-357.29)" fill="#ccc"/>
    </g>
  </g>
</svg>
