<svg xmlns="http://www.w3.org/2000/svg" width="420.8" height="331.2" viewBox="0 0 420.8 331.2">
  <g id="camera" transform="translate(0 -44.8)">
    <g id="Group_3688" data-name="Group 3688">
      <g id="Group_3687" data-name="Group 3687">
        <path id="Path_15955" data-name="Path 15955" d="M406.8,96.4a45.242,45.242,0,0,0-33.2-14H307.2v-.8a35.914,35.914,0,0,0-10.8-26,36.6,36.6,0,0,0-26-10.8h-120a36.876,36.876,0,0,0-37.2,36.8v.8h-66A45.242,45.242,0,0,0,14,96.4,47.556,47.556,0,0,0,0,129.6V328.8A45.242,45.242,0,0,0,14,362a47.556,47.556,0,0,0,33.2,14H373.6a45.242,45.242,0,0,0,33.2-14,47.556,47.556,0,0,0,14-33.2V129.6A45.242,45.242,0,0,0,406.8,96.4ZM400,328.8h-.4a25.948,25.948,0,0,1-26,26H47.2a25.948,25.948,0,0,1-26-26V129.6a25.948,25.948,0,0,1,26-26h77.2a10.755,10.755,0,0,0,10.8-10.8V81.2a15.057,15.057,0,0,1,15.6-15.6H270.4A15.057,15.057,0,0,1,286,81.2V92.8a10.755,10.755,0,0,0,10.8,10.8H374a25.948,25.948,0,0,1,26,26Z" fill="#fff"/>
        <path id="Path_15956" data-name="Path 15956" d="M210.4,130.8A98.329,98.329,0,1,0,280,159.6,98.574,98.574,0,0,0,210.4,130.8ZM264.8,284A77.257,77.257,0,0,1,156,284a76.468,76.468,0,0,1-22.4-54.4A78.169,78.169,0,0,1,156,175.2a76.468,76.468,0,0,1,54.4-22.4,78.169,78.169,0,0,1,54.4,22.4,76.468,76.468,0,0,1,22.4,54.4C287.6,250.8,278.8,270,264.8,284Z" fill="#fff"/>
        <circle id="Ellipse_24" data-name="Ellipse 24" cx="19.6" cy="19.6" r="19.6" transform="translate(333.2 130.4)" fill="#fff"/>
      </g>
    </g>
  </g>
</svg>
