<svg xmlns="http://www.w3.org/2000/svg" width="55.838" height="56" viewBox="0 0 55.838 56">
  <g id="saw" transform="translate(-20 -19.315)">
    <path id="Path_9582" data-name="Path 9582" d="M203.239,30.044l-.374.5,0,.006.219,3.256-2.9.142-.006.006.283,3.322-2.9.142-.006.006.283,3.321-2.9.142-.007.006.284,3.322-2.9.141-.006.007.284,3.321-2.9.142-.006.006.283,3.322-2.825.212-.007.006.284,3.322-2.9.141-.007.007.284,3.321-2.9.142-.006.006.283,3.322-2.825.212-.006.006.283,3.322-2.9.142.283,3.321-3.175.6s-.412-9.63-1.662-12.71c-.552-1.359-3.808-5.223-3.808-5.223a3.992,3.992,0,0,0-3.086-1.164L193.188,25.32Z" transform="translate(-128.111 -5.294)" fill="#ccc"/>
    <path id="Path_9584" data-name="Path 9584" d="M51.036,254.067a4,4,0,0,1-1.124,3.46L42.7,264.74s-2.529-.252-3.024-1.081c-.393-.658.051-3.279-.5-4.177-.677-1.112-2.407-1.333-3.611-3.753-.786-1.58-.725-4.34-1.58-4.965-1.575-1.149-6.505,2.039-7.988.408a15.355,15.355,0,0,1,6.213-6.955c.221-.125,4.365-4.726,7.677-8.07a4.006,4.006,0,0,1,5.676-.013s3.256,3.864,3.808,5.223C50.624,244.437,51.036,254.067,51.036,254.067Zm-5.368,1.168c1.358-1.358.513-5.823-.608-7.9-.958-1.931-4.157-5.978-6.227-3.907a2.481,2.481,0,0,0-.686,1.3,2.317,2.317,0,0,0,.168,1.461,32.947,32.947,0,0,1,2.147,3.586,30.081,30.081,0,0,1,1.4,4.471A2.279,2.279,0,0,0,45.667,255.234Z" transform="translate(-5.29 -190.135)" fill="#a8a8a8"/>
    <g id="Group_4233" data-name="Group 4233" transform="translate(20 19.315)">
      <path id="Path_9586" data-name="Path 9586" d="M130.587,300.542a13.053,13.053,0,0,0-1.985-2.819,5.823,5.823,0,0,0-3.114-2.008,2.515,2.515,0,0,0-2.26.745,3.186,3.186,0,0,0-.882,1.672,3,3,0,0,0,.255,1.952c.2.332.422.673.662,1.035a17.879,17.879,0,0,1,1.451,2.486,18.375,18.375,0,0,1,1.052,3.215c.106.415.206.807.317,1.168a3.021,3.021,0,0,0,2.166,2.073,2.947,2.947,0,0,0,2.819-.792c.984-.984.994-2.862.828-4.265A13.377,13.377,0,0,0,130.587,300.542Zm-.523,7.723a1.523,1.523,0,0,1-1.472.418,1.613,1.613,0,0,1-1.152-1.111c-.1-.329-.2-.7-.3-1.1A19.866,19.866,0,0,0,126,303.014a19.035,19.035,0,0,0-1.559-2.681c-.229-.345-.445-.671-.621-.969a1.678,1.678,0,0,1-.083-.972,1.77,1.77,0,0,1,.49-.93,1.112,1.112,0,0,1,.814-.366,1.315,1.315,0,0,1,.212.018c1.433.235,3.312,2.555,4.063,4.07l.012.022c1.128,2.088,1.7,6.091.73,7.058Z" transform="translate(-110.188 -262.983)" fill="#353535"/>
      <path id="Path_9587" data-name="Path 9587" d="M75.43,24.107,65.378,19.383a.71.71,0,0,0-.774.112L36.891,44.149a4.676,4.676,0,0,0-2.8,1.364c-1.918,1.936-4.083,4.26-5.664,5.957-.875.939-1.7,1.829-1.913,2.026a15.968,15.968,0,0,0-6.468,7.28.71.71,0,0,0,.134.739c1.083,1.192,3.065.636,4.982.1,1.12-.314,2.653-.745,3.113-.41a5.585,5.585,0,0,1,.6,2,10.842,10.842,0,0,0,.765,2.712,7.4,7.4,0,0,0,2.663,2.942,3.412,3.412,0,0,1,.977.864,6.072,6.072,0,0,1,.2,2.024,4.544,4.544,0,0,0,.289,2.148c.629,1.055,2.887,1.357,3.563,1.425a.709.709,0,0,0,.572-.2l7.214-7.214A4.729,4.729,0,0,0,46.5,64.512l2.549-.477a.71.71,0,0,0,.577-.758l-.221-2.588,2.161-.106a.71.71,0,0,0,.673-.769L52.018,57.2l2.118-.159a.71.71,0,0,0,.654-.768l-.221-2.594,2.168-.106a.71.71,0,0,0,.673-.769l-.221-2.594,2.168-.106a.71.71,0,0,0,.673-.769l-.223-2.613,2.118-.159a.71.71,0,0,0,.654-.768L62.356,43.2l2.168-.106a.71.71,0,0,0,.673-.769l-.221-2.594,2.168-.106a.71.71,0,0,0,.673-.769L67.6,36.264l2.168-.106a.71.71,0,0,0,.673-.769l-.221-2.594,2.168-.106a.71.71,0,0,0,.673-.769l-.221-2.594L75,29.219a.71.71,0,0,0,.674-.756l-.2-2.994.22-.294a.71.71,0,0,0-.266-1.068ZM44.12,66.89l-6.97,6.97A4.592,4.592,0,0,1,35,73.165a6.717,6.717,0,0,1-.092-1.434,5.858,5.858,0,0,0-.411-2.754,4.5,4.5,0,0,0-1.371-1.285,6,6,0,0,1-2.21-2.414,9.934,9.934,0,0,1-.642-2.349c-.245-1.268-.457-2.364-1.156-2.874-1.016-.741-2.627-.289-4.333.19a8.311,8.311,0,0,1-3.164.517A14.683,14.683,0,0,1,27.271,54.7a17.572,17.572,0,0,0,2.2-2.263c1.575-1.69,3.731-4,5.634-5.926a3.272,3.272,0,0,1,2.333-.976h.008a3.274,3.274,0,0,1,2.309.945,35.454,35.454,0,0,1,3.672,5.009c1.191,2.931,1.606,12.377,1.61,12.472,0,0,0,.008,0,.012s0,.032,0,.048,0,.014,0,.021a3.3,3.3,0,0,1-.924,2.847ZM72.036,27.943a.732.732,0,0,0-.476.216.71.71,0,0,0-.2.56l.221,2.588-2.161.106a.733.733,0,0,0-.476.216.71.71,0,0,0-.2.56l.22,2.587-2.161.106a.733.733,0,0,0-.476.216.71.71,0,0,0-.2.56l.221,2.588-2.161.106a.733.733,0,0,0-.476.216.71.71,0,0,0-.2.56l.221,2.588-2.161.106a.732.732,0,0,0-.473.213.71.71,0,0,0-.205.562L61.1,45.2l-2.111.159a.733.733,0,0,0-.455.212.71.71,0,0,0-.205.562l.221,2.588-2.161.106a.732.732,0,0,0-.471.211.71.71,0,0,0-.208.565l.221,2.588-2.161.106a.732.732,0,0,0-.473.213.71.71,0,0,0-.205.562l.222,2.607-2.111.159a.733.733,0,0,0-.457.214.71.71,0,0,0-.2.56l.221,2.588-2.161.106a.71.71,0,0,0-.673.769l.229,2.682-1.745.327c-.131-2.422-.6-9.476-1.673-12.129-.578-1.423-3.582-5.009-3.922-5.414-.013-.016-.027-.03-.041-.045a4.692,4.692,0,0,0-1.946-1.174L65.2,20.867l8.875,4.172a.7.7,0,0,0-.033.263l.17,2.535Z" transform="translate(-20 -19.315)" fill="#353535"/>
    </g>
  </g>
</svg>
