<svg xmlns="http://www.w3.org/2000/svg" width="24" height="24" viewBox="0 0 24 24">
    <defs>
        <style>
            .cls-1{fill:#2e3d74}
        </style>
    </defs>
    <g id="Group_3994" transform="translate(-40 -120)">
        <path id="Path_9150" d="M105.75 96h-9a.75.75 0 0 0 0 1.5h9a.75.75 0 0 0 0-1.5z" class="cls-1" transform="translate(-51.5 28.5)"/>
        <path id="Path_9151" d="M102.75 160h-6a.75.75 0 0 0 0 1.5h6a.75.75 0 0 0 0-1.5z" class="cls-1" transform="translate(-51.5 -32.5)"/>
        <path id="Path_9152" d="M16.5 0H3a3 3 0 0 0-3 3v15a.749.749 0 0 0 .432.68.761.761 0 0 0 .318.07.75.75 0 0 0 .48-.174L5.522 15H16.5a3 3 0 0 0 3-3V3a3 3 0 0 0-3-3zM18 12a1.5 1.5 0 0 1-1.5 1.5H5.25a.749.749 0 0 0-.48.174L1.5 16.4V3A1.5 1.5 0 0 1 3 1.5h13.5A1.5 1.5 0 0 1 18 3z" class="cls-1" transform="translate(40 120)"/>
        <path id="Path_9153" d="M143 128a.75.75 0 0 0 0 1.5 1.5 1.5 0 0 1 1.5 1.5v12.689l-2.532-2.025a.756.756 0 0 0-.468-.164H131a1.5 1.5 0 0 1-1.5-1.5v-.75a.75.75 0 0 0-1.5 0v.75a3 3 0 0 0 3 3h10.236l3.544 2.837a.751.751 0 0 0 1.22-.587V131a3 3 0 0 0-3-3z" class="cls-1" transform="translate(-82 -2)"/>
    </g>
</svg>
