<svg xmlns="http://www.w3.org/2000/svg" width="24" height="16.5" viewBox="0 0 24 16.5">
    <defs>
        <style>
            .cls-1{fill:#2e3d74}
        </style>
    </defs>
    <g id="credit-card" transform="translate(0 -80)">
        <path id="Path_8763" d="M21.375 80H2.625A2.628 2.628 0 0 0 0 82.625v11.25A2.628 2.628 0 0 0 2.625 96.5h18.75A2.628 2.628 0 0 0 24 93.875v-11.25A2.628 2.628 0 0 0 21.375 80zm-18.75 1.5h18.75a1.126 1.126 0 0 1 1.125 1.125v1.5h-21v-1.5A1.126 1.126 0 0 1 2.625 81.5zM21.375 95H2.625A1.126 1.126 0 0 1 1.5 93.875v-8.25h21v8.25A1.126 1.126 0 0 1 21.375 95z" class="cls-1"/>
        <path id="Path_8764" d="M81.5 306.25h-.75a.75.75 0 0 1-.75-.75v-.75a.75.75 0 0 1 .75-.75h.75a.75.75 0 0 1 .75.75v.75a.75.75 0 0 1-.75.75z" class="cls-1" transform="translate(-76.25 -213.5)"/>
    </g>
</svg>
