<svg xmlns="http://www.w3.org/2000/svg" width="50.511" height="50.511" viewBox="0 0 50.511 50.511">
  <g id="Electric_Plug" data-name="Electric Plug" transform="translate(-2 -2)">
    <path id="Path_9534" data-name="Path 9534" d="M56.888,16.684v6.735a8.418,8.418,0,0,1-8.418,8.418H43.418A8.418,8.418,0,0,1,35,23.418V16.684A1.689,1.689,0,0,1,36.684,15H55.2A1.689,1.689,0,0,1,56.888,16.684Z" transform="translate(-5.219 -2.056)" fill="#ccc"/>
    <g id="Group_4229" data-name="Group 4229" transform="translate(33.148 2.842)">
      <path id="Path_9536" data-name="Path 9536" d="M56.051,13.1v2.526H51V5.526a2.526,2.526,0,0,1,5.051,0Z" transform="translate(-40.898 -3)" fill="#a8a8a8"/>
      <path id="Path_9537" data-name="Path 9537" d="M50.051,34.367v2.526a2.526,2.526,0,1,1-5.051,0V33.526a2.526,2.526,0,1,1,5.051,0Z" transform="translate(-39.949 -7.428)" fill="#a8a8a8"/>
      <path id="Path_9538" data-name="Path 9538" d="M44.051,13.1v2.526H39V5.526a2.526,2.526,0,0,1,5.051,0Z" transform="translate(-39 -3)" fill="#a8a8a8"/>
    </g>
    <rect id="Rectangle_4363" data-name="Rectangle 4363" width="21" height="26" rx="2" transform="translate(2.511 2.511)" fill="#ccc"/>
    <path id="Path_9540" data-name="Path 9540" d="M19.1,14.735l-5.051,10.1V18.1H9L14.051,8v6.735Z" transform="translate(-1.107 -0.949)" fill="#a8a8a8"/>
    <path id="Path_9541" data-name="Path 9541" d="M33.148,44.934h5.893a2.533,2.533,0,0,0,2.526-2.526V35.556a3.367,3.367,0,0,0,2.526-3.25V30.581a9.27,9.27,0,0,0,8.418-9.218V14.628A2.533,2.533,0,0,0,49.985,12.1h-.842V5.367a3.367,3.367,0,1,0-6.735,0V12.1H39.041V5.367a3.367,3.367,0,1,0-6.735,0V12.1h-.842a2.533,2.533,0,0,0-2.526,2.526v6.735a9.27,9.27,0,0,0,8.418,9.218v1.726a3.367,3.367,0,0,0,2.526,3.25v6.853a.842.842,0,0,1-.842.842H33.148A2.521,2.521,0,0,0,30.707,46.4a2.57,2.57,0,0,0,2.534,1.9H49.985a.842.842,0,0,1,.842.842v.842a.842.842,0,0,1-.842.842H19.679a5.9,5.9,0,0,1-5.893-5.893v-16h7.577a2.533,2.533,0,0,0,2.526-2.526V4.526A2.533,2.533,0,0,0,21.362,2H4.526A2.533,2.533,0,0,0,2,4.526V26.414a2.533,2.533,0,0,0,2.526,2.526H12.1v16a7.588,7.588,0,0,0,7.577,7.577H49.985a2.533,2.533,0,0,0,2.526-2.526v-.842a2.533,2.533,0,0,0-2.526-2.526H33.241a.926.926,0,0,1-.909-.631.81.81,0,0,1,.236-.808.781.781,0,0,1,.581-.244ZM44.092,5.367a1.684,1.684,0,1,1,3.367,0v9.26H44.092Zm-10.1,0a1.684,1.684,0,1,1,3.367,0v9.26H33.99Zm3.376,23.521a7.577,7.577,0,0,1-6.743-7.526V14.628a.842.842,0,0,1,.842-.842h.842V15.47a.842.842,0,0,0,.842.842H38.2a.842.842,0,0,0,.842-.842V13.786h3.367V15.47a.842.842,0,0,0,.842.842H48.3a.842.842,0,0,0,.842-.842V13.786h.842a.842.842,0,0,1,.842.842v6.735a7.577,7.577,0,0,1-6.743,7.526,3.359,3.359,0,1,0-6.718,0Zm1.675,3.418V28.939a1.684,1.684,0,1,1,3.367,0v3.367a1.684,1.684,0,0,1-3.367,0ZM4.526,27.255a.842.842,0,0,1-.842-.842V4.526a.842.842,0,0,1,.842-.842H21.362a.842.842,0,0,1,.842.842V26.414a.842.842,0,0,1-.842.842Z" transform="translate(0 0)" fill="#353535"/>
    <path id="Path_9542" data-name="Path 9542" d="M47,35h1.684v1.684H47Z" transform="translate(-7.117 -5.219)" fill="#353535"/>
    <path id="Path_9543" data-name="Path 9543" d="M19.66,14.131a.842.842,0,0,0-.716-.4H14.735V7.842a.842.842,0,0,0-.648-.817.828.828,0,0,0-.943.438l-5.051,10.1a.842.842,0,0,0,.749,1.221h4.209v5.893a.842.842,0,0,0,.648.817.764.764,0,0,0,.194.025.842.842,0,0,0,.749-.463l5.051-10.1a.848.848,0,0,0-.034-.825Zm-4.925,6.979V17.944a.842.842,0,0,0-.842-.842H10.206l2.845-5.691v3.165a.842.842,0,0,0,.842.842h3.687Z" transform="translate(-0.949 -0.791)" fill="#353535"/>
  </g>
</svg>
