<svg xmlns="http://www.w3.org/2000/svg" width="16" height="11.72" viewBox="0 0 16 11.72">
  <path id="Path_9496" data-name="Path 9496" d="M13.978,24.61H2.022A2.024,2.024,0,0,0,0,26.632v7.676A2.024,2.024,0,0,0,2.022,36.33H13.978A2.024,2.024,0,0,0,16,34.308V26.632A2.024,2.024,0,0,0,13.978,24.61Zm-.316,1.3L8,30.288,2.338,25.914Zm.316,9.111H2.022a.719.719,0,0,1-.718-.718V26.764l6.3,4.864a.652.652,0,0,0,.8,0l6.3-4.864v7.544A.719.719,0,0,1,13.978,35.026Z" transform="translate(0 -24.61)" fill="#2e3d74"/>
</svg>
