<svg xmlns="http://www.w3.org/2000/svg" width="23.841" height="52" viewBox="0 0 23.841 52">
    <g>
        <path fill="#d1d3d4" d="M161.385 19.5h-7l7.989-17.983A1.083 1.083 0 0 0 161.385 0h-21.666a1.083 1.083 0 0 0-1.087 1.08v.088l2.168 28.166a1.083 1.083 0 0 0 1.083 1h3.354l2.069 20.692a1.083 1.083 0 0 0 2.074.319l13-30.333a1.083 1.083 0 0 0-1-1.51z" transform="translate(-138.632)"/>
        <path fill="#353535" d="M148.385 52a1.083 1.083 0 0 1-1.083-.975l-2.063-20.692h-3.354a1.083 1.083 0 0 1-1.083-1l-2.167-28.164a1.083 1.083 0 0 1 1-1.165H161.39a1.083 1.083 0 0 1 .99 1.517L154.387 19.5h7a1.083 1.083 0 0 1 1 1.517l-13 30.333a1.084 1.084 0 0 1-1.002.65zm-5.5-23.833h3.33a1.083 1.083 0 0 1 1.083.975l1.751 17.485 10.69-24.96h-7.024a1.083 1.083 0 0 1-.99-1.517l7.989-17.983h-18.825z" transform="translate(-138.632 -.001)"/>
    </g>
</svg>
