<svg xmlns="http://www.w3.org/2000/svg" width="39.375" height="56" viewBox="0 0 39.375 56">
  <g id="placeholder" transform="translate(-76)">
    <path id="Path_9494" data-name="Path 9494" d="M95.688,0A19.7,19.7,0,0,0,76,19.688a19.414,19.414,0,0,0,2.953,10.336l15.4,25.2a1.555,1.555,0,0,0,1.116.755,1.633,1.633,0,0,0,1.673-.788l15.444-25.431a19.417,19.417,0,0,0,2.789-10.073A19.7,19.7,0,0,0,95.688,0Zm0,29.531a9.844,9.844,0,1,1,9.844-9.844A9.831,9.831,0,0,1,95.688,29.531Z" fill="#2e3d74"/>
  </g>
</svg>
