<svg xmlns="http://www.w3.org/2000/svg" width="24" height="24" viewBox="0 0 24 24">
  <g id="Group_4176" data-name="Group 4176" transform="translate(-41 -544)">
    <rect id="Rectangle_4343" data-name="Rectangle 4343" width="24" height="24" transform="translate(41 544)" fill="none"/>
    <g id="home-2" transform="translate(41 516.068)">
      <g id="Group_3808" data-name="Group 3808" transform="translate(2.891 37.502)">
        <g id="Group_3807" data-name="Group 3807" transform="translate(0 0)">
          <path id="Path_9100" data-name="Path 9100" d="M78.568,211.786v11.181H74.346v-4.836a.768.768,0,0,0-.768-.768h-5.4a.768.768,0,0,0-.768.768v4.836h-4.2V211.786H61.681v11.949a.768.768,0,0,0,.768.768H68.18a.768.768,0,0,0,.768-.768V218.9h3.864v4.836a.768.768,0,0,0,.768.768h5.757a.768.768,0,0,0,.768-.768V211.786Z" transform="translate(-61.681 -211.786)" fill="#2e3d74"/>
        </g>
      </g>
      <g id="Group_3810" data-name="Group 3810" transform="translate(0 28.931)">
        <g id="Group_3809" data-name="Group 3809" transform="translate(0 0)">
          <path id="Path_9101" data-name="Path 9101" d="M23.757,39.552,12.627,29.138a.768.768,0,0,0-1.044,0L.248,39.547a.768.768,0,0,0,1.039,1.13L12.1,30.745l10.61,9.928a.768.768,0,0,0,1.049-1.121Z" transform="translate(0 -28.931)" fill="#2e3d74"/>
        </g>
      </g>
    </g>
  </g>
</svg>
