<svg xmlns="http://www.w3.org/2000/svg" width="40" height="25.726" viewBox="0 0 40 25.726">
  <g id="Group_4189" data-name="Group 4189" transform="translate(-35.5 -163)">
    <g id="Group_4188" data-name="Group 4188">
      <path id="Path_9061" data-name="Path 9061" d="M12.864,0A12.863,12.863,0,1,0,25.728,12.863,12.878,12.878,0,0,0,12.864,0Zm0,0" transform="translate(35.5 163)" fill="#ffbc4f"/>
      <path id="Path_9062" data-name="Path 9062" d="M195.544,0a12.863,12.863,0,1,0,12.864,12.863A12.878,12.878,0,0,0,195.544,0Zm0,0" transform="translate(-132.908 163)" fill="#ff7d4f"/>
      <path id="Path_9063" data-name="Path 9063" d="M192.011,204.848a1.172,1.172,0,0,0-1.172-1.172h-3.472a12.756,12.756,0,0,0,.821,2.344h2.652A1.172,1.172,0,0,0,192.011,204.848Zm0,0" transform="translate(-137.229 -24.764)" fill="#ffbc4f"/>
      <path id="Path_9064" data-name="Path 9064" d="M189.984,107.223a1.172,1.172,0,0,0-1.172-1.172h-3a12.753,12.753,0,0,0-.648,2.344h3.644A1.172,1.172,0,0,0,189.984,107.223Zm0,0" transform="translate(-135.202 65.234)" fill="#ffbc4f"/>
      <path id="Path_9065" data-name="Path 9065" d="M190.914,156.035a1.172,1.172,0,0,0-1.172-1.172H182.7c-.015.253-.023.508-.023.764a12.917,12.917,0,0,0,.1,1.58h6.965A1.172,1.172,0,0,0,190.914,156.035Zm0,0" transform="translate(-132.908 20.235)" fill="#ffbc4f"/>
    </g>
  </g>
</svg>
