<svg xmlns="http://www.w3.org/2000/svg" width="15.922" height="18.207" viewBox="0 0 15.922 18.207">
    <defs>
        <style>
            .cls-1{fill:#c2d6d3}
        </style>
    </defs>
    <g id="badge">
        <path id="Path_9140" d="M1.778 329.191l-1.722 3.444a.533.533 0 0 0 .477.772h2.59l1.554 2.072a.533.533 0 0 0 .9-.081l1.623-3.246a7.879 7.879 0 0 1-5.422-2.961zm0 0" class="cls-1" transform="translate(0 -317.485)"/>
        <path id="Path_9141" d="M252.3 332.635l-1.722-3.443a7.879 7.879 0 0 1-5.426 2.961l1.623 3.245a.533.533 0 0 0 .9.081l1.554-2.072h2.59a.533.533 0 0 0 .477-.772zm0 0" class="cls-1" transform="translate(-236.438 -317.485)"/>
        <path id="Path_9142" d="M147.541 108.965l-.893-1.426-.893 1.426a.534.534 0 0 1-.323.234l-1.632.408 1.08 1.29a.533.533 0 0 1 .123.379l-.116 1.678 1.56-.629a.534.534 0 0 1 .4 0l1.561.629-.116-1.678a.534.534 0 0 1 .123-.379l1.08-1.29-1.632-.408a.534.534 0 0 1-.322-.234zm0 0" class="cls-1" transform="translate(-138.687 -103.715)"/>
        <path id="Path_9143" d="M45.77 6.818a6.818 6.818 0 1 0-6.818 6.818 6.826 6.826 0 0 0 6.818-6.818zm-2.606-.893L41.674 7.7l.16 2.314a.533.533 0 0 1-.732.532l-2.151-.867-2.151.867a.533.533 0 0 1-.732-.532l.16-2.314-1.49-1.778a.533.533 0 0 1 .279-.86l2.25-.563L38.5 2.536a.534.534 0 0 1 .9 0L40.634 4.5l2.25.563a.533.533 0 0 1 .279.86zm0 0" class="cls-1" transform="translate(-30.99)"/>
    </g>
</svg>
