<svg xmlns="http://www.w3.org/2000/svg" width="24" height="24" viewBox="0 0 24 24">
  <g id="Group_4178" data-name="Group 4178" transform="translate(-232 -616)">
    <rect id="Rectangle_4337" data-name="Rectangle 4337" width="24" height="24" transform="translate(232 616)" fill="none"/>
    <g id="message" transform="translate(232 617.5)">
      <path id="Path_9102" data-name="Path 9102" d="M19.078.5H4.922A4.927,4.927,0,0,0,0,5.422v7.6a4.842,4.842,0,0,0,3.482,4.655l2.377,2.377a.7.7,0,0,0,.994,0l2.181-2.181H19.078A4.927,4.927,0,0,0,24,12.954V5.422A4.927,4.927,0,0,0,19.078.5Zm3.516,12.454a3.52,3.52,0,0,1-3.516,3.516H8.743a.7.7,0,0,0-.5.206L6.357,18.565,4.344,16.552a.7.7,0,0,0-.327-.185,3.439,3.439,0,0,1-2.611-3.344v-7.6A3.52,3.52,0,0,1,4.922,1.906H19.078a3.52,3.52,0,0,1,3.516,3.516Zm0,0" transform="translate(0 0)" fill="#ccc"/>
      <path id="Path_9103" data-name="Path 9103" d="M155.39,144.328h-8.929a.7.7,0,0,0,0,1.406h8.929a.7.7,0,0,0,0-1.406Zm0,0" transform="translate(-138.925 -137.086)" fill="#ccc"/>
      <path id="Path_9104" data-name="Path 9104" d="M155.39,197.352h-8.929a.7.7,0,1,0,0,1.406h8.929a.7.7,0,1,0,0-1.406Zm0,0" transform="translate(-138.925 -187.624)" fill="#ccc"/>
    </g>
  </g>
</svg>
