<svg xmlns="http://www.w3.org/2000/svg" width="10.95" height="10.823" viewBox="0 0 10.95 10.823">
  <g id="money" transform="translate(0.05 -2.95)">
    <g id="Group_2622" data-name="Group 2622" transform="translate(6.356 8.366)">
      <g id="Group_2621" data-name="Group 2621">
        <path id="Path_8755" data-name="Path 8755" d="M300.844,257.73a.408.408,0,1,1,.466-.4.212.212,0,0,0,.424,0,.843.843,0,0,0-.678-.8v-.11a.212.212,0,0,0-.424,0v.11a.843.843,0,0,0-.678.8.861.861,0,0,0,.89.827.408.408,0,1,1-.466.4.212.212,0,0,0-.424,0,.843.843,0,0,0,.678.8v.092a.212.212,0,0,0,.424,0v-.092a.843.843,0,0,0,.678-.8A.861.861,0,0,0,300.844,257.73Z" transform="translate(-299.954 -256.201)" fill="#2e3d74" stroke="#2e3d74" stroke-width="0.1"/>
      </g>
    </g>
    <g id="Group_2624" data-name="Group 2624" transform="translate(8.136 7.615)">
      <g id="Group_2623" data-name="Group 2623">
        <path id="Path_8756" data-name="Path 8756" d="M385.356,221.8a2.761,2.761,0,0,0-1.128-1,.212.212,0,0,0-.184.382,2.333,2.333,0,0,1,1.051,3.2.212.212,0,1,0,.374.2,2.758,2.758,0,0,0-.113-2.778Z" transform="translate(-383.924 -220.785)" fill="#2e3d74" stroke="#2e3d74" stroke-width="0.1"/>
      </g>
    </g>
    <g id="Group_2628" data-name="Group 2628" transform="translate(4.493 8.715)">
      <g id="Group_2627" data-name="Group 2627">
        <path id="Path_8758" data-name="Path 8758" d="M213.748,276.218a2.333,2.333,0,0,1-1.051-3.2.212.212,0,0,0-.374-.2,2.756,2.756,0,0,0,1.241,3.776.212.212,0,1,0,.184-.382Z" transform="translate(-212.002 -272.711)" fill="#2e3d74" stroke="#2e3d74" stroke-width="0.1"/>
      </g>
    </g>
    <g id="Group_2632" data-name="Group 2632" transform="translate(0 3)">
      <g id="Group_2631" data-name="Group 2631" transform="translate(0 0)">
        <path id="Path_8760" data-name="Path 8760" d="M8.21,6.648a.973.973,0,0,0-.094-.173h.552a.975.975,0,1,0,0-1.95H6.97A.974.974,0,0,0,6.167,3H.975a.975.975,0,0,0,0,1.95h1.7a.972.972,0,0,0,0,1.1H2.119a.974.974,0,0,0-.606,1.738.973.973,0,0,0,0,1.526.973.973,0,0,0,0,1.526.974.974,0,0,0,.606,1.738h2.5A3.6,3.6,0,1,0,8.21,6.648Zm.458-1.7a.551.551,0,1,1,0,1.1H3.475a.551.551,0,1,1,0-1.1ZM.975,4.526a.551.551,0,0,1,0-1.1H6.167a.551.551,0,1,1,0,1.1Zm1.144,1.95H7.311a.551.551,0,0,1,.24.055c-.1-.008-.2-.013-.3-.013A3.591,3.591,0,0,0,4.7,7.577H2.119a.551.551,0,1,1,0-1.1ZM2.119,8H4.336a3.592,3.592,0,0,0-.545,1.1H2.119a.551.551,0,1,1,0-1.1Zm0,1.526H3.694a3.605,3.605,0,0,0-.013,1.1H2.119a.551.551,0,0,1,0-1.1Zm0,2.628a.551.551,0,0,1,0-1.1H3.767a3.588,3.588,0,0,0,.508,1.1ZM7.247,13.3a3.179,3.179,0,1,1,3.179-3.179A3.182,3.182,0,0,1,7.247,13.3Z" transform="translate(0 -3)" fill="#2e3d74" stroke="#2e3d74" stroke-width="0.1"/>
      </g>
    </g>
  </g>
</svg>
