<svg xmlns="http://www.w3.org/2000/svg" width="32" height="30.273" viewBox="0 0 32 30.273">
  <g id="Group_3895" data-name="Group 3895" transform="translate(-24 -137)">
    <g id="wrench" transform="translate(24 137)">
      <path id="Path_8890" data-name="Path 8890" d="M34.5,34.876a7.941,7.941,0,0,0,1.845-8.339l-4.042,4.042-3.735-1-1-3.735L31.611,21.8a7.943,7.943,0,0,0-10.5,9.08,3.4,3.4,0,0,1-1.065,3.243L8.783,44.08a3.747,3.747,0,1,0,5.284,5.284L24.024,38.1a3.4,3.4,0,0,1,3.243-1.065A7.933,7.933,0,0,0,34.5,34.876Z" transform="translate(-7.011 -20.852)" fill="#d1d3d4"/>
      <path id="Path_8892" data-name="Path 8892" d="M403.742,290.246l-2.8-1.617a.548.548,0,0,0-.548,0l-2.8,1.617a.549.549,0,0,0-.274.475v3.234a.549.549,0,0,0,.274.475l2.8,1.617a.548.548,0,0,0,.548,0l2.8-1.617a.549.549,0,0,0,.274-.475v-3.234A.549.549,0,0,0,403.742,290.246Zm-3.075,3.353a1.261,1.261,0,1,1,1.261-1.261A1.262,1.262,0,0,1,400.667,293.6Z" transform="translate(-372.485 -271.384)" fill="#d1d3d4"/>
      <path id="Path_8893" data-name="Path 8893" d="M248.681,350.758l-2.8-1.617a.549.549,0,0,0-.548,0l-2.8,1.617a.548.548,0,0,0-.274.475v3.234a.548.548,0,0,0,.274.475l2.8,1.617a.549.549,0,0,0,.548,0l2.8-1.617a.548.548,0,0,0,.274-.475v-3.234A.548.548,0,0,0,248.681,350.758Zm-3.075,3.353a1.261,1.261,0,1,1,1.262-1.262A1.261,1.261,0,0,1,245.606,354.111Z" transform="translate(-227.115 -328.114)" fill="#d1d3d4"/>
      <g id="Group_3663" data-name="Group 3663" transform="translate(0 0)">
        <path id="Path_8896" data-name="Path 8896" d="M264.2,151.011a.469.469,0,0,0-.663,0l-.515.515a.469.469,0,0,0,.663.663l.515-.515A.469.469,0,0,0,264.2,151.011Z" transform="translate(-246.453 -142.307)" fill="#353535"/>
        <path id="Path_8897" data-name="Path 8897" d="M283.8,172.778a.467.467,0,0,0,.332-.137l.515-.515a.469.469,0,1,0-.663-.663l-.515.515a.469.469,0,0,0,.331.8Z" transform="translate(-265.626 -161.481)" fill="#353535"/>
        <path id="Path_8898" data-name="Path 8898" d="M304.44,191.914l-.515.515a.469.469,0,1,0,.663.663l.515-.515a.469.469,0,0,0-.663-.663Z" transform="translate(-284.8 -180.654)" fill="#353535"/>
        <path id="Path_8899" data-name="Path 8899" d="M324.376,213.546a.469.469,0,0,0,.663,0l.515-.515a.469.469,0,0,0-.663-.663l-.515.515A.469.469,0,0,0,324.376,213.546Z" transform="translate(-303.973 -199.829)" fill="#353535"/>
        <path id="Path_8900" data-name="Path 8900" d="M46.857,423.8l-.865.865a.469.469,0,1,0,.663.663l.865-.865a.469.469,0,1,0-.663-.663Z" transform="translate(-42.988 -398.046)" fill="#353535"/>
        <path id="Path_8901" data-name="Path 8901" d="M241.883,343.326l-2.8-1.617a1.02,1.02,0,0,0-1.017,0l-2.8,1.617a1.021,1.021,0,0,0-.509.881v3.234a1.02,1.02,0,0,0,.509.881l2.8,1.617a1.021,1.021,0,0,0,1.017,0l2.8-1.617a1.02,1.02,0,0,0,.509-.881v-3.234A1.021,1.021,0,0,0,241.883,343.326Zm-.429,4.115a.08.08,0,0,1-.04.069l-2.8,1.617a.08.08,0,0,1-.08,0l-2.8-1.617a.08.08,0,0,1-.04-.069v-3.234a.08.08,0,0,1,.04-.069l2.8-1.617a.079.079,0,0,1,.08,0l2.8,1.617a.08.08,0,0,1,.04.069Z" transform="translate(-220.083 -321.088)" fill="#353535"/>
        <path id="Path_8902" data-name="Path 8902" d="M269.883,381.9a1.73,1.73,0,1,0,1.73,1.73A1.732,1.732,0,0,0,269.883,381.9Zm0,2.523a.793.793,0,1,1,.793-.793A.794.794,0,0,1,269.883,384.419Z" transform="translate(-251.392 -358.89)" fill="#353535"/>
        <path id="Path_8903" data-name="Path 8903" d="M423.214,323.114a1.73,1.73,0,1,0,1.73-1.73A1.732,1.732,0,0,0,423.214,323.114Zm2.523,0a.793.793,0,1,1-.793-.793A.794.794,0,0,1,425.737,323.114Z" transform="translate(-396.762 -302.16)" fill="#353535"/>
        <path id="Path_8904" data-name="Path 8904" d="M396.943,282.816l-2.8-1.617a1.021,1.021,0,0,0-1.017,0l-2.8,1.617a1.02,1.02,0,0,0-.509.881v3.234a1.02,1.02,0,0,0,.509.881l2.8,1.617a1.019,1.019,0,0,0,1.017,0l1-.58a.469.469,0,1,0-.468-.812l-1,.58a.079.079,0,0,1-.08,0l-2.8-1.617a.08.08,0,0,1-.04-.069V283.7a.08.08,0,0,1,.04-.069l2.8-1.617a.08.08,0,0,1,.08,0l2.8,1.617a.08.08,0,0,1,.04.069v3.234a.08.08,0,0,1-.04.069l-.168.1a.469.469,0,1,0,.469.812l.168-.1a1.02,1.02,0,0,0,.509-.881V283.7A1.02,1.02,0,0,0,396.943,282.816Z" transform="translate(-365.452 -264.359)" fill="#353535"/>
        <path id="Path_8905" data-name="Path 8905" d="M99.87,88.5a8.411,8.411,0,0,0,9.616-11.118.469.469,0,0,0-.772-.171l-3.851,3.851-3.212-.861-.861-3.212.462-.462a.469.469,0,1,0-.663-.663l-.653.653a.469.469,0,0,0-.121.453l1,3.735a.469.469,0,0,0,.331.331l3.735,1a.469.469,0,0,0,.453-.121l3.492-3.492a7.473,7.473,0,0,1-8.766,9.158,3.878,3.878,0,0,0-3.69,1.214l-9.956,11.264,0,0a3.251,3.251,0,0,1-1.114.841.469.469,0,1,0,.392.852,4.182,4.182,0,0,0,1.431-1.079l9.954-11.261A2.938,2.938,0,0,1,99.87,88.5Z" transform="translate(-79.71 -71.855)" fill="#353535"/>
        <path id="Path_8906" data-name="Path 8906" d="M3.946,43.154A3.278,3.278,0,0,1,2.077,37.4l0,0,11.264-9.956a3.879,3.879,0,0,0,1.214-3.69,7.473,7.473,0,0,1,9.158-8.766L22.2,16.5a.469.469,0,0,0,.663.663L24.931,15.1a.469.469,0,0,0-.171-.772,8.411,8.411,0,0,0-11.118,9.616,2.939,2.939,0,0,1-.917,2.8L1.464,36.692a4.215,4.215,0,0,0,2.407,7.4.469.469,0,0,0,.076-.934Z" transform="translate(0 -13.817)" fill="#353535"/>
      </g>
    </g>
  </g>
</svg>
