<svg xmlns="http://www.w3.org/2000/svg" width="19.933" height="17.986" viewBox="0 0 19.933 17.986">
    <defs>
        <style>
            .cls-1{fill:#c2d6d3}
        </style>
    </defs>
    <g id="calendar-4" transform="translate(0 -25)">
        <path id="Path_9137" d="M19.933 30.606v-2.3a1.754 1.754 0 0 0-1.752-1.752h-.234V28.7a.584.584 0 0 1-1.168 0v-3.116a.584.584 0 0 0-1.168 0v.973h-3.893V28.7a.584.584 0 0 1-1.168 0v-3.116a.584.584 0 0 0-1.168 0v.973H5.489V28.7a.584.584 0 0 1-1.168 0v-3.116a.584.584 0 0 0-1.168 0v.973h-1.4A1.754 1.754 0 0 0 0 28.309v2.3z" class="cls-1"/>
        <path id="Path_9138" d="M0 199v9.46a1.754 1.754 0 0 0 1.752 1.752h16.429a1.754 1.754 0 0 0 1.752-1.752V199zm5.606 8.1H4.36a.584.584 0 0 1 0-1.168h1.246a.584.584 0 0 1 0 1.168zm0-2.492H4.36a.584.584 0 0 1 0-1.168h1.246a.584.584 0 0 1 0 1.168zm0-2.492H4.36a.584.584 0 1 1 0-1.168h1.246a.584.584 0 1 1 0 1.168zm4.983 4.983H9.344a.584.584 0 0 1 0-1.168h1.246a.584.584 0 0 1 0 1.168zm0-2.492H9.344a.584.584 0 0 1 0-1.168h1.246a.584.584 0 0 1 0 1.168zm0-2.492H9.344a.584.584 0 1 1 0-1.168h1.246a.584.584 0 1 1 0 1.168zm4.983 4.983h-1.245a.584.584 0 0 1 0-1.168h1.246a.584.584 0 0 1 0 1.168zm0-2.492h-1.245a.584.584 0 0 1 0-1.168h1.246a.584.584 0 0 1 0 1.168zm0-2.492h-1.245a.584.584 0 1 1 0-1.168h1.246a.584.584 0 1 1 0 1.168z" class="cls-1" transform="translate(0 -167.226)"/>
    </g>
</svg>
