<svg xmlns="http://www.w3.org/2000/svg" width="54.432" height="55.777" viewBox="0 0 54.432 55.777">
  <g id="paint-brushes" transform="translate(0 -6.415)">
    <path id="Path_9621" data-name="Path 9621" d="M165.322,48.723l4.822,4.822,4.821,4.821,4.822,4.822,4.017,4.017L170.947,80.062l-22.5-22.5L161.3,44.7Z" transform="translate(-133.724 -33.938)" fill="#ccc"/>
    <path id="Path_9622" data-name="Path 9622" d="M148.021,180.335l-1.608,1.607a4.543,4.543,0,0,1-6.428,0l-3.215-3.214a2.272,2.272,0,0,0-3.214,0l-1.607,1.607-.8-.8-4.821-4.821-.8-.8,1.607-1.607a2.272,2.272,0,0,0,0-3.214l-3.215-3.215a4.546,4.546,0,0,1,0-6.429l1.608-1.607Z" transform="translate(-109.564 -134.735)" fill="#ccc"/>
    <path id="Path_9623" data-name="Path 9623" d="M32.162,305.684l-12.2,13.94c-.084.1-.172.19-.264.282a5.682,5.682,0,1,1-8.036-8.036c.092-.092.186-.18.282-.264l13.791-12.351.8.8,4.821,4.821Z" transform="translate(-8.864 -260.511)" fill="#a8a8a8"/>
    <path id="Path_9624" data-name="Path 9624" d="M465.656,176.459l-1.607,1.607a1.136,1.136,0,1,0,1.607,1.607l1.607-1.607a1.136,1.136,0,1,0-1.607-1.607Z" transform="translate(-413.165 -150.771)"/>
    <path id="Path_9627" data-name="Path 9627" d="M47.05,53.2l-.017-.018-4.611-4.719-.016-.017-4.611-4.719-.016-.016-4.612-4.72-.016-.016L29.3,35.033a1.073,1.073,0,0,0-1.543,0L15.42,47.661,13.876,49.24a5.682,5.682,0,0,0,0,7.893l3.086,3.158a1.134,1.134,0,0,1,0,1.578l-1.522,1.557L2.227,75.536h0c-.112.1-.214.2-.313.3a6.817,6.817,0,0,0,0,9.472,6.446,6.446,0,0,0,9.255,0c.1-.1.2-.21.3-.329h0l0,0L23.158,71.314l1.517-1.552a1.074,1.074,0,0,1,1.542,0L29.3,72.918a5.363,5.363,0,0,0,7.712,0l1.544-1.579L50.9,58.712a1.135,1.135,0,0,0,0-1.579ZM3.456,83.73a4.544,4.544,0,0,1,0-6.314c.068-.069.14-.138.22-.211l0,0,0,0L16.15,65.773,20.868,70.6,9.829,83.508h0c-.071.082-.137.155-.2.223a4.3,4.3,0,0,1-6.17,0Zm29.7-11.409a3.212,3.212,0,0,1-2.313-.982l-3.086-3.157a3.223,3.223,0,0,0-4.627,0l-.771.789-4.628-4.736.771-.789a3.4,3.4,0,0,0,0-4.735l-3.086-3.158a3.409,3.409,0,0,1,0-4.736l.772-.79L36.243,70.551l-.772.79A3.212,3.212,0,0,1,33.158,72.322Zm4.628-3.349L17.734,48.45,28.53,37.4l2.314,2.368-5.4,5.524a1.135,1.135,0,0,0,0,1.579,1.073,1.073,0,0,0,1.543,0l5.4-5.524,3.085,3.158-5.4,5.524a1.135,1.135,0,0,0,0,1.579,1.073,1.073,0,0,0,1.543,0l5.4-5.524L40.1,49.241l-5.4,5.524a1.135,1.135,0,0,0,0,1.579,1.073,1.073,0,0,0,1.543,0l5.4-5.524,3.085,3.158-5.4,5.524a1.135,1.135,0,0,0,0,1.579,1.073,1.073,0,0,0,1.542,0l5.4-5.524,2.313,2.367Z" transform="translate(0 -25.076)" fill="#353535"/>
    <path id="Path_9628" data-name="Path 9628" d="M337.572,40.193a1.133,1.133,0,0,0,.8-.333l3.214-3.214a1.137,1.137,0,1,0-1.607-1.607l-3.214,3.214a1.136,1.136,0,0,0,.8,1.94Z" transform="translate(-299.759 -25.076)" fill="#353535"/>
    <path id="Path_9629" data-name="Path 9629" d="M295.143,10.3a1.133,1.133,0,0,0,.8-.333l1.607-1.607a1.136,1.136,0,0,0-1.607-1.607L294.34,8.355a1.136,1.136,0,0,0,.8,1.94Z" transform="translate(-261.916)" fill="#353535"/>
    <path id="Path_9630" data-name="Path 9630" d="M379.189,57.215a1.136,1.136,0,0,0,1.607,0l6.429-6.429a1.137,1.137,0,1,0-1.607-1.607l-6.429,6.429A1.137,1.137,0,0,0,379.189,57.215Z" transform="translate(-337.949 -37.609)" fill="#353535"/>
    <path id="Path_9631" data-name="Path 9631" d="M426.441,105.748l-4.822,4.821a1.136,1.136,0,1,0,1.607,1.607l4.822-4.821a1.137,1.137,0,0,0-1.607-1.607Z" transform="translate(-375.557 -87.964)" fill="#353535"/>
  </g>
</svg>
