<svg xmlns="http://www.w3.org/2000/svg" width="16" height="10.667" viewBox="0 0 16 10.667">
  <g id="Group_3956" data-name="Group 3956" transform="translate(-39 -386)">
    <g id="Group_2578" data-name="Group 2578" transform="translate(39 386)">
      <path id="Path_7534" data-name="Path 7534" d="M373.851,170.516l.547.59.73-.338-.392.7.547.59-.789-.156-.392.7-.1-.8-.789-.156.73-.338Z" transform="translate(-361.554 -167.854)" fill="#e5e5e5"/>
      <rect id="Rectangle_3911" data-name="Rectangle 3911" width="16" height="10.666" fill="#e5e5e5"/>
    </g>
    <rect id="Rectangle_3912" data-name="Rectangle 3912" width="12" height="10.667" transform="translate(43 386)" fill="#496e2d"/>
    <g id="Group_2579" data-name="Group 2579" transform="translate(45.698 388.736)">
      <path id="Path_7535" data-name="Path 7535" d="M218.961,176.823a2.167,2.167,0,1,1-1.55-3.9,2.667,2.667,0,1,0,2.233,3.09A2.158,2.158,0,0,1,218.961,176.823Z" transform="translate(-214.35 -172.888)" fill="#e5e5e5"/>
      <path id="Path_7536" data-name="Path 7536" d="M340.958,172.889l.546.589.729-.338-.391.7.546.589-.788-.155-.391.7-.1-.8-.788-.155.729-.338Z" transform="translate(-336.388 -172.889)" fill="#e5e5e5"/>
    </g>
  </g>
</svg>
