<svg xmlns="http://www.w3.org/2000/svg" width="56" height="14.31" viewBox="0 0 56 14.31">
  <g id="Group_4191" data-name="Group 4191" transform="translate(-203.5 -169)">
    <path id="Path_9075" data-name="Path 9075" d="M351.911,221.2h-3.022a.591.591,0,0,0-.444.356l-1.244,7.822a.236.236,0,0,0,.267.267h1.6a.236.236,0,0,0,.267-.267l.355-2.222a.407.407,0,0,1,.444-.356h.978a3.1,3.1,0,0,0,3.467-2.933,2.33,2.33,0,0,0-.356-1.956,3.585,3.585,0,0,0-2.311-.711m.356,2.933c-.178,1.067-.978,1.067-1.778,1.067h-.533l.356-2.044c0-.089.089-.178.267-.178h.178c.533,0,1.067,0,1.333.356.178.089.178.356.178.8" transform="translate(-105.122 -48.467)" fill="#139ad6"/>
    <path id="Path_9076" data-name="Path 9076" d="M155.911,221.2h-3.022a.591.591,0,0,0-.444.356l-1.244,7.822a.236.236,0,0,0,.267.267h1.422a.591.591,0,0,0,.444-.356l.356-2.133a.407.407,0,0,1,.444-.356h.978a3.1,3.1,0,0,0,3.467-2.933,2.33,2.33,0,0,0-.356-1.956,3.417,3.417,0,0,0-2.311-.711m.356,2.933c-.178,1.067-.978,1.067-1.778,1.067h-.444l.356-2.044c0-.089.089-.178.267-.178h.178c.533,0,1.067,0,1.333.356a.952.952,0,0,1,.089.8" transform="translate(69.1 -48.467)" fill="#263b80"/>
    <path id="Path_9077" data-name="Path 9077" d="M220.8,245.378h-1.422c-.089,0-.267.089-.267.178l-.089.444-.089-.178a2.091,2.091,0,0,0-1.689-.622,3.416,3.416,0,0,0-3.289,2.933,2.649,2.649,0,0,0,.533,2.222,2.24,2.24,0,0,0,1.867.711,2.841,2.841,0,0,0,2.044-.8l-.089.444a.236.236,0,0,0,.267.267h1.333a.591.591,0,0,0,.444-.356l.8-4.978c-.089-.089-.267-.267-.356-.267m-2.044,2.844a1.719,1.719,0,0,1-1.689,1.422,1.421,1.421,0,0,1-.978-.356,1.9,1.9,0,0,1-.267-1.067,1.585,1.585,0,0,1,2.578-1.067,1.552,1.552,0,0,1,.356,1.067" transform="translate(13.367 -69.8)" fill="#263b80"/>
    <path id="Path_9078" data-name="Path 9078" d="M416,245.378h-1.422c-.089,0-.267.089-.267.178l-.089.444-.089-.178a2.091,2.091,0,0,0-1.689-.622,3.416,3.416,0,0,0-3.289,2.933,2.65,2.65,0,0,0,.533,2.222,2.24,2.24,0,0,0,1.867.711,2.841,2.841,0,0,0,2.044-.8l-.089.444a.236.236,0,0,0,.267.267h1.333a.59.59,0,0,0,.444-.356l.8-4.978c-.089-.089-.178-.267-.356-.267m-2.044,2.844a1.719,1.719,0,0,1-1.689,1.422,1.421,1.421,0,0,1-.978-.356,1.9,1.9,0,0,1-.267-1.067,1.585,1.585,0,0,1,2.578-1.067,1.02,1.02,0,0,1,.356,1.067" transform="translate(-160.143 -69.8)" fill="#139ad6"/>
    <path id="Path_9079" data-name="Path 9079" d="M290.844,246.8h-1.511a.462.462,0,0,0-.356.178L287.022,250l-.889-2.844a.411.411,0,0,0-.444-.267h-1.422c-.178,0-.267.178-.267.356l1.6,4.711-1.511,2.133c-.089.178,0,.444.178.444h1.422a.462.462,0,0,0,.356-.178l4.889-7.022c.267-.267.089-.533-.089-.533" transform="translate(-48.944 -71.223)" fill="#263b80"/>
    <path id="Path_9080" data-name="Path 9080" d="M476.444,221.9l-1.244,8a.236.236,0,0,0,.267.267h1.244a.591.591,0,0,0,.444-.356l1.245-7.822a.236.236,0,0,0-.267-.267h-1.422c-.089-.089-.178,0-.267.178" transform="translate(-218.9 -48.898)" fill="#139ad6"/>
    <path id="Path_9081" data-name="Path 9081" d="M10.222,188.667A4.392,4.392,0,0,0,6.844,187.6H2.4a.762.762,0,0,0-.622.533L0,199.778a.407.407,0,0,0,.356.444H3.111l.711-4.356v.178a.763.763,0,0,1,.622-.533H5.778c2.578,0,4.533-1.067,5.156-4v-.267h0a3.1,3.1,0,0,0-.711-2.578" transform="translate(203.5 -18.6)" fill="#263b80"/>
    <path id="Path_9082" data-name="Path 9082" d="M33.6,220.4h0v.267c-.622,3.022-2.578,4-5.156,4H27.111a.763.763,0,0,0-.622.533l-.889,5.422a.326.326,0,0,0,.356.356h2.311a.5.5,0,0,0,.533-.444v-.089l.444-2.756v-.178a.5.5,0,0,1,.533-.444h.356c2.222,0,4-.889,4.444-3.556a3.268,3.268,0,0,0-.444-2.667.91.91,0,0,0-.533-.444" transform="translate(180.745 -47.756)" fill="#139ad6"/>
    <path id="Path_9083" data-name="Path 9083" d="M40.8,215.867c-.089,0-.178-.089-.267-.089a.327.327,0,0,1-.267-.089,4.7,4.7,0,0,0-1.156-.089H35.644a.327.327,0,0,0-.267.089.489.489,0,0,0-.267.444l-.711,4.622v.178a.763.763,0,0,1,.622-.533h1.333c2.578,0,4.533-1.067,5.156-4a.326.326,0,0,1,.089-.267c-.178-.089-.267-.178-.444-.178-.267-.089-.267-.089-.356-.089" transform="translate(172.922 -43.489)" fill="#232c65"/>
  </g>
</svg>
