<svg xmlns="http://www.w3.org/2000/svg" xmlns:xlink="http://www.w3.org/1999/xlink" width="138.462" height="145.649" viewBox="0 0 138.462 145.649">
  <defs>
    <clipPath id="clip-path">
      <path id="Clip_8" data-name="Clip 8" d="M0,0H10.225V14.542H0Z" transform="translate(0.353 0.482)" fill="none"/>
    </clipPath>
    <clipPath id="clip-path-2">
      <path id="Clip_13" data-name="Clip 13" d="M0,0H12.973V8.286H0Z" transform="translate(0 0.609)" fill="none"/>
    </clipPath>
  </defs>
  <g id="Group_19" data-name="Group 19" transform="matrix(0.966, -0.259, 0.259, 0.966, -13.591, 27.529)">
    <path id="Fill_1" data-name="Fill 1" d="M19.868,20.886c.436.124.863.279,1.3.38,1.059.243,2.117.5,3.187.68a.71.71,0,0,0,.807-.991c-.724-1.694-1.442-3.394-2.252-5.05A2.114,2.114,0,0,1,23.49,13.1a24.584,24.584,0,0,1,3.4-2.6,13.458,13.458,0,0,0,1.659-1.328.5.5,0,0,0,.1-.479,1.583,1.583,0,0,0-.557-.516.829.829,0,0,0-.53-.048c-2,.4-3.988-.071-5.98-.03a2.548,2.548,0,0,1-2.4-1.416c-.818-1.352-1.375-2.862-2.41-3.762C16.071,1.889,15.542,1.078,14.959.3A.932.932,0,0,0,13.97.037a.846.846,0,0,0-.691.72c-.067.518-.065,1.044-.084,1.566-.056,1.568-.092,3.137-.168,4.705A1.79,1.79,0,0,1,11.4,8.821a30.2,30.2,0,0,1-7.811.986,9.927,9.927,0,0,0-3.245.261.594.594,0,0,0-.228.88,5.333,5.333,0,0,0,1.923.936,28.68,28.68,0,0,1,6.033,3.005A2.523,2.523,0,0,1,9.44,17.507c-.132,1.39-.251,2.784-.267,4.177s1.151,1.951,2.424,1.2c.463-.273.867-.636,1.315-.932,3.232-2.127,3.234-2.126,6.956-1.064" transform="translate(38.243 71.023)" fill="#deecea"/>
    <path id="Fill_3" data-name="Fill 3" d="M21.673,3.366C22.8.347,18.282-1.47,17.15,1.552,11.009,17.944,6.177,34.818.173,51.26-.933,54.287,3.588,56.108,4.7,53.073c6-16.443,10.836-33.317,16.977-49.707" transform="translate(62.828)" fill="#ffd800"/>
    <path id="Fill_5" data-name="Fill 5" d="M28.459,6.469C20.067,4.341,11.4,3.258,3.293.182.343-.938-1.438,3.427,1.514,4.549,9.626,7.626,18.283,8.705,26.68,10.836c3.039.771,4.851-3.586,1.779-4.366" transform="translate(84.681 94.242)" fill="#ffd800"/>
    <g id="Group_9" data-name="Group 9" transform="translate(68.291 125.656)">
      <path id="Clip_8-2" data-name="Clip 8" d="M0,0H10.225V14.542H0Z" transform="translate(0.353 0.482)" fill="none"/>
      <g id="Group_9-2" data-name="Group 9" clip-path="url(#clip-path)">
        <path id="Fill_7" data-name="Fill 7" d="M10.185,11.8A18.452,18.452,0,0,0,3.812.566C1.4-1.463-1.5,2.462.9,4.478a13.249,13.249,0,0,1,4.452,8.1c.521,3.087,5.362,2.32,4.838-.778" transform="translate(0.353 0.482)" fill="#ffd800"/>
      </g>
    </g>
    <path id="Fill_10" data-name="Fill 10" d="M6.666,15.578A35.4,35.4,0,0,0,5.336,1.947c-.927-3.061-6.164-2.3-5.223.8A31.847,31.847,0,0,1,1.4,15.082c-.3,3.205,4.965,3.721,5.266.5" transform="translate(35.511 31.414)" fill="#ffd800"/>
    <g id="Group_14" data-name="Group 14" transform="translate(0 51.901)">
      <path id="Clip_13-2" data-name="Clip 13" d="M0,0H12.973V8.286H0Z" transform="translate(0 0.609)" fill="none"/>
      <g id="Group_14-2" data-name="Group 14" clip-path="url(#clip-path-2)">
        <path id="Fill_12" data-name="Fill 12" d="M11.436,3.372,3.33.186C.343-.988-1.455,3.737,1.538,4.913L9.643,8.1c2.987,1.174,4.785-3.551,1.793-4.727" transform="translate(0 0.609)" fill="#ffd800"/>
      </g>
    </g>
    <path id="Fill_15" data-name="Fill 15" d="M54.731.606C45.566,8.553,35.807,15.747,26.115,23.03c-4.725,3.549-9.44,7.118-14.026,10.848-2.284,1.858-4.511,3.79-6.849,5.58-1.76,1.348-3.6,2.412-4.817,4.309-1.728,2.694,2.285,5.676,4.021,2.97,1.4-2.179,4.221-3.6,6.217-5.217,1.907-1.546,3.782-3.133,5.7-4.671C20.982,33.132,25.724,29.562,30.471,26c9.287-6.965,18.6-13.887,27.38-21.5,2.427-2.106-.687-6.01-3.12-3.9" transform="translate(83.315 9.561)" fill="#ffd800"/>
    <path id="Fill_17" data-name="Fill 17" d="M30.649.457c-9.555-.222-19.1-.963-28.63.107C-.323.828-.809,4.446,1.529,5.122l.795.23a2.494,2.494,0,0,0,2.018-.239c8.595-.785,17.206-.133,25.822.068,3.127.073,3.647-4.651.486-4.725" transform="translate(92.876 76.486)" fill="#ffd800"/>
  </g>
</svg>
