<svg id="remove_1_" data-name="remove (1)" xmlns="http://www.w3.org/2000/svg" width="20" height="20" viewBox="0 0 20 20">
  <path id="Path_9532" data-name="Path 9532" d="M10,0A10,10,0,1,0,20,10,10.011,10.011,0,0,0,10,0Zm0,0" fill="#e0c72c"/>
  <path id="Path_9533" data-name="Path 9533" d="M162.846,161.7a.808.808,0,1,1-1.142,1.142l-2.427-2.427-2.427,2.427a.808.808,0,0,1-1.142-1.142l2.427-2.427-2.427-2.427a.808.808,0,0,1,1.142-1.142l2.427,2.427,2.427-2.427a.808.808,0,0,1,1.142,1.142l-2.427,2.427Zm0,0" transform="translate(-149.278 -149.278)" fill="#fafafa"/>
</svg>
