<svg xmlns="http://www.w3.org/2000/svg" width="39.875" height="43.538" viewBox="0 0 39.875 43.538">
    <path fill="#2e3d74" d="M53.429 18h-.108v-2.64a15.357 15.357 0 0 0-30.714 0V18h-.647a4.388 4.388 0 0 0-4.2 4.526v6.735a4.257 4.257 0 0 0 4.147 4.363h4.043a1.024 1.024 0 0 0 .975-1.071V19.29c0-.647-.377-1.293-.97-1.293h-1.192v-2.64a13.2 13.2 0 1 1 26.4 0V18H49.98c-.593 0-.97.647-.97 1.293v13.2a1.024 1.024 0 0 0 .909 1.127h1.3l-.108.162a8.513 8.513 0 0 1-6.843 3.395A5.334 5.334 0 0 0 33.707 38.2a5.388 5.388 0 0 0 5.393 5.338 5.55 5.55 0 0 0 3.88-1.67 4.742 4.742 0 0 0 1.293-2.586 10.669 10.669 0 0 0 8.567-4.257l1.024-1.509c2.317-.162 3.772-1.616 3.772-3.718v-6.736C57.631 20.745 55.907 18 53.429 18zM24.763 31.468h-2.8a2.1 2.1 0 0 1-2.05-2.152v-6.793a2.234 2.234 0 0 1 2.048-2.371h2.8zm16.65 8.891a3.179 3.179 0 0 1-2.313 1.023 3.287 3.287 0 0 1-3.237-3.182 3.179 3.179 0 1 1 6.358 0 2.856 2.856 0 0 1-.808 2.159zM55.476 29.8c0 1.455-1.4 1.67-2.048 1.67h-2.263V20.152h2.263c1.185 0 2.048 1.67 2.048 2.91z" transform="translate(-17.756)"/>
</svg>
