<svg xmlns="http://www.w3.org/2000/svg" width="16.12" height="16.121" viewBox="0 0 16.12 16.121">
  <path id="Path_9495" data-name="Path 9495" d="M15.716,11.89l-2-2a1.419,1.419,0,0,0-2,0L10.8,10.8a1.075,1.075,0,0,1-1.518,0L5.331,6.845a1.073,1.073,0,0,1,0-1.518l.911-.911a1.416,1.416,0,0,0,0-2l-2-2a1.418,1.418,0,0,0-2,0l-.73.724a5.116,5.116,0,0,0,0,7.227l6.256,6.259a5.107,5.107,0,0,0,7.227,0l.729-.729A1.419,1.419,0,0,0,15.716,11.89ZM2.9,1.083a.473.473,0,0,1,.669,0l2,2a.472.472,0,0,1,0,.668l-.334.334-2.67-2.67ZM8.429,13.955,2.173,7.7a4.153,4.153,0,0,1-.261-5.6L4.575,4.754a2.016,2.016,0,0,0,.088,2.76l3.948,3.952h0a2.016,2.016,0,0,0,2.76.088l2.663,2.663A4.145,4.145,0,0,1,8.429,13.955Zm6.619-.729-.334.334-2.672-2.672.334-.334a.473.473,0,0,1,.668,0l2,2A.473.473,0,0,1,15.048,13.226Z" transform="translate(-0.011)" fill="#2e3d74"/>
</svg>
