<svg xmlns="http://www.w3.org/2000/svg" width="24" height="10.285" viewBox="0 0 24 10.285">
    <g>
        <g>
            <path fill="#2e3d74" d="M23.143 137.435a.857.857 0 0 0-.857.857v2.571h-2.571v-2.571a.857.857 0 0 0-1.714 0v2.571h-7.789a5.142 5.142 0 1 0 0 1.714h12.931a.857.857 0 0 0 .857-.857v-3.428a.857.857 0 0 0-.857-.857zm-18 7.712a3.428 3.428 0 1 1 3.428-3.428 3.428 3.428 0 0 1-3.424 3.428z" transform="translate(0 -136.577) translate(0 136.577) translate(0 -136.577)"/>
        </g>
    </g>
</svg>
