<svg xmlns="http://www.w3.org/2000/svg" width="48" height="14.476" viewBox="0 0 48 14.476">
  <g id="Group_4190" data-name="Group 4190" transform="translate(-119.5 -169)">
    <path id="Path_9066" data-name="Path 9066" d="M184.8,194.114l2.438-13.714h3.81l-2.362,13.714Z" transform="translate(-47.7 -10.943)" fill="#0a53a3"/>
    <path id="Path_9068" data-name="Path 9068" d="M259.657,176.21a9.665,9.665,0,0,0-3.5-.61c-3.81,0-6.552,1.9-6.552,4.648,0,2.057,1.9,3.124,3.429,3.81s1.981,1.143,1.981,1.752c0,.914-1.219,1.371-2.286,1.371a8.281,8.281,0,0,1-3.657-.762l-.533-.229L248,189.314a12.354,12.354,0,0,0,4.343.762c4.038,0,6.7-1.9,6.7-4.8,0-1.6-.99-2.819-3.276-3.809-1.371-.686-2.209-1.067-2.209-1.752,0-.609.686-1.219,2.209-1.219a6.988,6.988,0,0,1,2.9.533l.381.152.61-2.971Z" transform="translate(-104.881 -6.6)" fill="#0a53a3"/>
    <path id="Path_9070" data-name="Path 9070" d="M366.1,180.4c-.914,0-1.6.076-1.981.99L358.4,194.114h4.114l.762-2.286h4.876l.457,2.286h3.657l-3.2-13.714Zm-1.752,9.143c.229-.686,1.524-4.038,1.524-4.038s.3-.838.533-1.371l.229,1.3s.762,3.429.914,4.191h-3.2Z" transform="translate(-204.767 -10.943)" fill="#0a53a3"/>
    <path id="Path_9072" data-name="Path 9072" d="M56.914,190.724l-.381-1.981a11.045,11.045,0,0,0-5.333-6.019l3.429,12.19h4.114L64.914,181.2H60.8Z" transform="translate(73.176 -11.667)" fill="#0a53a3"/>
    <path id="Path_9074" data-name="Path 9074" d="M0,180.4l.686.152c4.876,1.143,8.229,4.038,9.524,7.467l-1.371-6.476c-.229-.914-.914-1.143-1.752-1.143Z" transform="translate(119.5 -10.943)" fill="#f3a928"/>
  </g>
</svg>
