<svg xmlns="http://www.w3.org/2000/svg" width="23.031" height="32" viewBox="0 0 23.031 32">
    <defs>
        <style>
            .cls-1{fill:#939598}.cls-2{fill:#d1d3d4}.cls-3{fill:#353535}
        </style>
    </defs>
    <g id="water-heater" transform="translate(-17.939)">
        <path id="Path_9319" d="M40.591 28.188h-4.825l-2.5 2.5h-5l-2.5-2.5h-4.832a1.25 1.25 0 0 1-1.25-1.25V3a1.25 1.25 0 0 1 1.25-1.25H40.59A1.25 1.25 0 0 1 41.84 3v23.938a1.25 1.25 0 0 1-1.249 1.25z" class="cls-1" transform="translate(-1.309 -1.313)"/>
        <path id="Path_9320" d="M89.25 107.5h3.688v1.688a.5.5 0 0 1-.5.5H89.75a.5.5 0 0 1-.5-.5z" class="cls-2" transform="translate(-53.483 -80.625)"/>
        <path id="Path_9321" d="M92.875 116.25h1.875v2.5h-1.875z" class="cls-1" transform="translate(-56.202 -87.188)"/>
        <path id="Path_9322" d="M.5 0h2.688a.5.5 0 0 1 .5.5v1.688H0V.5A.5.5 0 0 1 .5 0z" class="cls-2" transform="rotate(180 11.571 14.531)"/>
        <path id="Path_9323" d="M0 0h1.875v2.5H0z" class="cls-1" transform="rotate(180 11.117 15.781)"/>
        <path id="Path_9324" d="M47.563 63.44h-8.932l-2.5-2.219V59h13.933v2.218z" class="cls-2" transform="translate(-13.643 -44.252)"/>
        <path id="Path_9325" d="M35.125 1.75h14.187v12.227H35.125z" class="cls-2" transform="translate(-12.89 -1.313)"/>
        <path id="Path_9326" d="M60.157 19.493a1.671 1.671 0 0 1-3.341 0c0-.923 1.671-3.371 1.671-3.371s1.67 2.448 1.67 3.371z" class="cls-2" transform="translate(-29.158 -12.092)"/>
        <g id="Group_4027" transform="translate(17.939)">
            <path id="Path_9327" d="M40.532 20.835a.437.437 0 0 0 .438-.437V1.687A1.689 1.689 0 0 0 39.282 0H19.626a1.69 1.69 0 0 0-1.687 1.688v23.937a1.689 1.689 0 0 0 1.078 1.575v1.366a.937.937 0 0 0 .906.934v2.066a.437.437 0 0 0 .437.434h1.875a.437.437 0 0 0 .438-.437V29.5a.937.937 0 0 0 .906-.934v-1.25h.69l2.375 2.375a.437.437 0 0 0 .309.128h5a.437.437 0 0 0 .309-.128l2.374-2.375h.69v1.25a.937.937 0 0 0 .906.934v2.066a.437.437 0 0 0 .437.438h1.875a.437.437 0 0 0 .438-.437V29.5a.937.937 0 0 0 .906-.934V27.2a1.689 1.689 0 0 0 1.078-1.572v-2.25a.437.437 0 1 0-.875 0v2.25a.813.813 0 0 1-.812.812h-4.822a.438.438 0 0 0-.31.128l-2.375 2.372h-4.639l-2.375-2.374a.438.438 0 0 0-.309-.128h-4.825a.813.813 0 0 1-.812-.812V1.687a.813.813 0 0 1 .813-.813H21.8v11.79a.437.437 0 0 0 .438.438H24.2a.438.438 0 1 0 0-.875h-1.527V.875h13.311v11.352h-6.07a.438.438 0 0 0 0 .875h6.508a.437.437 0 0 0 .438-.437V.875h2.423a.813.813 0 0 1 .812.813V20.4a.437.437 0 0 0 .438.438zm-2.422 10.29h-1V29.5h1zm.906-3.812v1.25a.062.062 0 0 1-.062.063h-2.687a.062.062 0 0 1-.062-.062v-1.25zM21.8 31.125h-1V29.5h1zm.906-3.812v1.25a.062.062 0 0 1-.062.063h-2.69a.062.062 0 0 1-.062-.062v-1.25z" class="cls-3" transform="translate(-17.939)"/>
            <path id="Path_9328" d="M49.19 59.907v-2.22a.437.437 0 0 0-.437-.437H34.817a.437.437 0 0 0-.437.438v2.219a.438.438 0 0 0 .147.328l2.5 2.219a.437.437 0 0 0 .29.11h8.933a.437.437 0 0 0 .29-.11l2.5-2.218a.438.438 0 0 0 .147-.327zm-.875-.2l-2.23 1.978h-8.6l-2.231-1.975v-1.584h13.061z" class="cls-3" transform="translate(-30.269 -42.937)"/>
            <path id="Path_9329" d="M54.438 85.554a.437.437 0 0 0-.438-.437h-8.687a.438.438 0 0 0 0 .875H54a.437.437 0 0 0 .438-.437z" class="cls-3" transform="translate(-38.141 -63.838)"/>
            <path id="Path_9330" d="M52.688 95.235a.438.438 0 0 0 0 .875h5a.438.438 0 0 0 0-.875z" class="cls-3" transform="translate(-43.672 -71.426)"/>
            <path id="Path_9331" d="M50.272 49.347a.438.438 0 0 0 .438.438h1.2a.438.438 0 0 0 0-.875h-1.2a.437.437 0 0 0-.437.438z" class="cls-3" transform="translate(-42.189 -36.682)"/>
            <path id="Path_9332" d="M57.176 20.288a2.11 2.11 0 0 0 2.108-2.108c0-1.007-1.455-3.19-1.747-3.617a.437.437 0 0 0-.723 0c-.292.428-1.747 2.611-1.747 3.617a2.11 2.11 0 0 0 2.109 2.108zm0-4.68a8.174 8.174 0 0 1 1.233 2.572 1.233 1.233 0 1 1-2.466 0 8.165 8.165 0 0 1 1.233-2.572z" class="cls-3" transform="translate(-45.786 -10.779)"/>
        </g>
    </g>
</svg>
