<svg id="Layer_2" data-name="Layer 2" xmlns="http://www.w3.org/2000/svg" width="12" height="12" viewBox="0 0 12 12">
  <g id="settings-2">
    <rect id="Rectangle_4017" data-name="Rectangle 4017" width="12" height="12" transform="translate(12 12) rotate(180)" fill="#2e3d74" opacity="0"/>
    <path id="_Group_" data-name="&lt;Group&gt;" d="M7.578,12.2H6.614a.857.857,0,0,1-.857-.857v-.556a.173.173,0,0,0-.112-.148.194.194,0,0,0-.209,0l-.377.408a.851.851,0,0,1-1.208,0l-.7-.683A.846.846,0,0,1,2.9,9.755a.877.877,0,0,1,.255-.617l.377-.377a.173.173,0,0,0,0-.189c-.031-.076-.082-.133-.153-.133h-.52A.862.862,0,0,1,2,7.578V6.614a.857.857,0,0,1,.857-.857h.556a.173.173,0,0,0,.148-.112.194.194,0,0,0,0-.209l-.408-.377a.851.851,0,0,1,0-1.208l.683-.7a.841.841,0,0,1,.6-.255.877.877,0,0,1,.622.255l.377.377a.173.173,0,0,0,.189,0c.076-.031.133-.082.133-.153v-.52A.862.862,0,0,1,6.619,2h.989a.857.857,0,0,1,.857.857v.556a.173.173,0,0,0,.112.148.194.194,0,0,0,.209,0l.352-.408a.851.851,0,0,1,1.208,0l.7.683a.851.851,0,0,1,.255.607.831.831,0,0,1-.255.617l-.377.377a.173.173,0,0,0,0,.189c.031.076.082.133.153.133h.556a.862.862,0,0,1,.821.862v.989a.857.857,0,0,1-.857.857h-.556a.21.21,0,0,0-.148.3l.393.393a.851.851,0,0,1,0,1.208l-.668.678a.841.841,0,0,1-.6.255.877.877,0,0,1-.607-.255l-.393-.377a.173.173,0,0,0-.189,0c-.076.031-.133.082-.133.153v.556A.862.862,0,0,1,7.578,12.2Zm-.8-1.02H7.42v-.393a1.188,1.188,0,0,1,.744-1.091,1.2,1.2,0,0,1,1.32.24l.275.275.449-.449-.275-.28a1.206,1.206,0,0,1,.846-2.044h.4V6.777h-.393a1.188,1.188,0,0,1-1.091-.744,1.2,1.2,0,0,1,.24-1.32l.275-.275L9.76,3.988l-.28.275A1.219,1.219,0,0,1,7.44,3.412V3.02H6.777v.393A1.188,1.188,0,0,1,6.033,4.5a1.2,1.2,0,0,1-1.32-.24l-.275-.275-.449.449.275.28a1.219,1.219,0,0,1-.851,2.039H3.02V7.4h.393A1.188,1.188,0,0,1,4.5,8.144a1.2,1.2,0,0,1-.24,1.32l-.275.275.449.449.28-.275a1.219,1.219,0,0,1,2.039.851Z" transform="translate(-0.98 -0.98)" fill="#2e3d74"/>
    <path id="Path_8876" data-name="Path 8876" d="M10.284,12.069a1.784,1.784,0,1,1,1.784-1.784,1.784,1.784,0,0,1-1.784,1.784Zm0-2.549a.765.765,0,1,0,.765.765A.765.765,0,0,0,10.284,9.52Z" transform="translate(-4.166 -4.166)" fill="#2e3d74"/>
  </g>
</svg>
